<svg xmlns="http://www.w3.org/2000/svg" viewBox="0 0 400 210" role="img" aria-label="smg weapon preview"><defs><linearGradient id="bg" x2="1" y2="1"><stop stop-color="#263e49"/><stop offset="1" stop-color="#10232e"/></linearGradient></defs><rect width="400" height="210" rx="12" fill="url(#bg)"/><path d="M0 170H400M0 40H400M40 0V210M360 0V210" stroke="#92b7c4" opacity=".08"/><ellipse cx="202" cy="180" rx="151" ry="7" fill="#071821" opacity=".7"/><rect x="224" y="91" width="79" height="13" rx="2" fill="#17232d"/><rect x="295" y="87" width="12" height="22" fill="#526373"/>
 <path d="M52 89H111V110H74L63 124H36V101Z" fill="#374b59"/><path d="M47 97H101V104H59L51 114H44Z" fill="#20333f"/>
 <rect x="102" y="79" width="122" height="41" rx="4" fill="#536c7b"/><path d="M106 81H221V91H106Z" fill="#8295a1"/>
 <rect x="171" y="87" width="53" height="34" rx="3" fill="#354b5c"/>
 <path d="M117 116H138L151 160H132Z" fill="#293b48"/><path d="M143 117H173V140H151Z" fill="#152733"/><path d="M150 121H166V133H153Z" fill="#627888"/>
 <rect x="111" y="91" width="66" height="10" rx="2" fill="#263c4b"/><rect x="153" y="93" width="18" height="5" fill="#b0bac0"/>
 <path d="M103 75H216V80H103Z" fill="#192d3a"/>
 <rect x="111" y="67" width="8" height="12" fill="#394e5d"/><rect x="210" y="67" width="8" height="12" fill="#394e5d"/><path d="M174 117H196L202 177H180Z" fill="#263b4b"/><path d="M180 128L185 166M188 128L193 166" stroke="#536b79" stroke-width="3"/><rect x="184" y="57" width="24" height="20" rx="3" fill="#203742"/><rect x="189" y="61" width="14" height="9" fill="#67dce0"/></svg>